# xmcd
#
# Track frame offsets:
#	150
#	13605
#	25965
#	36985
#	51385
#	64460
#	75685
#	86625
#	99110
#	110205
#	120860
#	134930
#	145345
#	155780
#	167100
#	180035
#	191185
#	204540
#	218060
#	229315
#
# Disc length: 3232 seconds
#
# Revision: 0
# Processed by: cddbd v1.5.1PL0 Copyright (c) Steve Scherf et al.
# Submitted via: audiograbber 1.83.01
#
DISCID=260c9e14
DTITLE=George Jones And Tammy Wynette - Jones And Wynette
DYEAR=1900
DGENRE=Country
TTITLE0=We're Gonna Hold On
TTITLE1=Two Story House
TTITLE2=Take Me
TTITLE3=The Ceremony
TTITLE4=Old Fashion Singing
TTITLE5=(We're Not) The Jet Set
TTITLE6=We Loved It Away
TTITLE7=God's Gonna Get 'Cha (For That)
TTITLE8=Someone I Used To Know
TTITLE9=Livin' On Easy Street
TTITLE10=Golden Ring
TTITLE11=After Closing Time
TTITLE12=Something To Brag About
TTITLE13=We'll Talk About It Later
TTITLE14=Rollin' In My Sweet Baby's Arms
TTITLE15=Near You
TTITLE16=Southern California
TTITLE17=Let's Build A World Together
TTITLE18=After The Fire Is Gone
TTITLE19=If We Don't Make It
EXTD=
EXTT0=
EXTT1=
EXTT2=
EXTT3=
EXTT4=
EXTT5=
EXTT6=
EXTT7=
EXTT8=
EXTT9=
EXTT10=
EXTT11=
EXTT12=
EXTT13=
EXTT14=
EXTT15=
EXTT16=
EXTT17=
EXTT18=
EXTT19=
PLAYORDER=
